<svg width="17" height="16" viewBox="0 0 17 16" fill="none" xmlns="http://www.w3.org/2000/svg">
<path d="M9.91759 2H11.8011C12.206 2 12.5916 2.17533 12.8606 2.48178L14.8086 4.701C15.2607 5.21601 15.2876 5.98367 14.8727 6.52984L9.62362 13.4398C9.05618 14.1867 7.9439 14.1867 7.37646 13.4398L2.12734 6.52984C1.71244 5.98367 1.73935 5.21601 2.19144 4.701L4.1395 2.48178C4.4085 2.17533 4.79408 2 5.19898 2H7.24M9.91759 2L11.3351 5.58857M9.91759 2H7.24M11.3351 5.58857H14.879M11.3351 5.58857L8.50004 13.8423L5.66495 5.58857M11.3351 5.58857H5.66495M7.24 2L5.66495 5.58857M2.12108 5.58857H5.66495" stroke="#FFCE80" stroke-width="1.5" stroke-linecap="round" stroke-linejoin="round"/>
</svg>
