<svg width="16" height="17" viewBox="0 0 16 17" fill="none" xmlns="http://www.w3.org/2000/svg">
    <path fill-rule="evenodd" clip-rule="evenodd" d="M1.833 4.5c0-1.197.97-2.167 2.167-2.167h4a.5.5 0 0 0 0-1H4A3.167 3.167 0 0 0 .833 4.5v8A3.167 3.167 0 0 0 4 15.667h8a3.167 3.167 0 0 0 3.167-3.167v-4a.5.5 0 0 0-1 0v4c0 1.197-.97 2.167-2.167 2.167H4A2.167 2.167 0 0 1 1.833 12.5v-8zm9.113-2.215a1.541 1.541 0 0 1 2.18 0l1.09 1.09a1.541 1.541 0 0 1 0 2.179l-.967.966a10.605 10.605 0 0 1-.238-.122c-.557-.293-1.218-.704-1.711-1.198-.494-.493-.905-1.154-1.199-1.71a10.655 10.655 0 0 1-.121-.24l.966-.965zm-.354 3.623c.584.583 1.326 1.043 1.914 1.355l-3.8 3.8a1.541 1.541 0 0 1-.871.435l-2.289.327a.77.77 0 0 1-.871-.871L5 8.665c.048-.33.2-.636.436-.872l3.8-3.8c.312.589.772 1.33 1.355 1.915z" fill="#DA6317"/>
</svg>
