<svg width="107" height="122" viewBox="0 0 107 122" fill="none" xmlns="http://www.w3.org/2000/svg">
<g clip-path="url(#clip0_104_901)">
<path fill-rule="evenodd" clip-rule="evenodd" d="M35.8925 77.155L33.22 61.6676C33.22 61.6676 21.4017 59.7006 22.1046 49.2802C22.8074 38.8597 25.0507 38.1605 28.9985 35.7639C32.9464 33.3673 33.2073 33.3715 33.2073 33.3715C33.2073 33.3715 39.4532 2.40504 58.9483 3.24743C78.4434 4.08983 85.1859 10.6395 89.1211 20.6345C93.0563 30.6295 93.0647 35.4143 93.0647 35.4143C93.0647 35.4143 105.834 37.8699 103.048 49.3518C100.262 60.8336 90.9519 62.0214 90.9519 62.0214C90.9519 62.0214 92.7238 107.262 86.4485 113.829C80.1732 120.395 65.3456 119.46 65.3456 119.46L45.2318 120.303C45.2318 120.303 17.1003 120.867 12.176 117.489C7.25174 114.111 2.18857 102.987 3.5943 94.5421C5.00004 86.0971 11.4732 78.069 17.799 77.3656C24.1248 76.6622 35.8925 77.155 35.8925 77.155Z" fill="#FEFEFE"/>
<path fill-rule="evenodd" clip-rule="evenodd" d="M64.2387 106.862H80.6193C80.7261 106.861 80.831 106.89 80.923 106.944C81.015 106.998 81.0905 107.076 81.1415 107.17C81.1925 107.264 81.2171 107.37 81.2126 107.477C81.2081 107.583 81.1747 107.687 81.116 107.776C79.7903 109.723 77.9458 111.26 75.7918 112.211C71.3642 114.254 66.1579 114.536 66.1579 114.536L63.0939 108.77C62.9872 108.573 62.9337 108.351 62.9388 108.126C62.9438 107.901 63.0073 107.682 63.1228 107.49C63.2383 107.297 63.402 107.138 63.5977 107.028C63.7933 106.918 64.0143 106.861 64.2387 106.862ZM44.8783 46.4792C45.5765 47.6294 46.4258 48.6805 47.4036 49.6045C51.0821 53.0752 56.705 53.0288 59.3144 52.7803C59.3708 52.7763 59.4237 52.7518 59.4632 52.7115C59.5027 52.6711 59.5262 52.6177 59.5291 52.5613C59.5334 52.5045 59.5171 52.448 59.483 52.4023C59.449 52.3566 59.3996 52.3248 59.3439 52.3128C54.5148 51.3013 50.1597 48.7094 46.9659 44.946C46.7514 44.7028 46.4538 44.5488 46.1315 44.5143C45.8092 44.4799 45.4857 44.5675 45.2248 44.7599C44.9639 44.9523 44.7845 45.2355 44.7219 45.5538C44.6593 45.872 44.7181 46.2022 44.8867 46.4792H44.8783ZM66.1748 83.5194C67.8726 85.3705 69.0959 87.6066 69.7396 90.0353C70.4368 93.0848 70.8134 96.199 70.8634 99.3269L59.3271 99.8913C58.7569 97.2335 58.9022 94.4718 59.7479 91.8886C60.7244 88.7591 62.9087 85.4105 64.1461 83.6583C64.2595 83.5003 64.4066 83.3697 64.5769 83.2759C64.7472 83.1821 64.9362 83.1275 65.1302 83.1162C65.3243 83.1049 65.5184 83.1371 65.6983 83.2105C65.8783 83.2839 66.0397 83.3966 66.1706 83.5404L66.1748 83.5194ZM51.6713 120.033L45.2613 120.303C45.2613 120.303 33.6072 120.534 23.9901 119.801L23.8386 119.78L12.7316 117.594C12.5605 117.566 12.3971 117.503 12.2521 117.408C12.1071 117.313 11.9837 117.188 11.8898 117.043L6.51941 109.04C6.38897 108.846 6.31328 108.62 6.30034 108.387C6.28741 108.154 6.33771 107.921 6.44593 107.714C6.55415 107.507 6.71627 107.333 6.91515 107.21C7.11404 107.088 7.3423 107.021 7.57582 107.018L45.4128 106.382C45.6242 106.381 45.8281 106.46 45.9841 106.603C46.1401 106.746 46.2366 106.942 46.2546 107.153C46.3893 109.141 47.2352 114.452 52.2942 117.636C52.5293 117.783 52.7111 118.002 52.813 118.26C52.9149 118.518 52.9315 118.801 52.8605 119.069C52.7894 119.338 52.6343 119.576 52.418 119.749C52.2017 119.923 51.9356 120.022 51.6586 120.033H51.6713ZM56.7218 63.3945C59.6167 65.6834 63.0967 67.1109 66.764 67.5138C74.222 68.2172 78.1572 64.9866 78.1572 64.9866C78.1572 64.9866 79.706 68.154 82.3113 69.3545C84.9165 70.5549 85.8256 70.5465 85.8256 70.5465L85.7625 61.7855C85.7639 61.5591 85.7045 61.3364 85.5905 61.1408C85.4765 60.9451 85.312 60.7838 85.1143 60.6736L77.5259 56.2594C77.5259 56.2594 66.1327 59.848 65.7791 59.848C65.5434 59.848 60.5476 60.602 57.3195 61.1116C57.0688 61.15 56.8348 61.2611 56.6466 61.4312C56.4584 61.6013 56.3242 61.8229 56.2605 62.0686C56.1969 62.3143 56.2067 62.5732 56.2887 62.8134C56.3707 63.0536 56.5213 63.2644 56.7218 63.4198V63.3945ZM35.6063 75.5082L34.8824 71.2962C34.8697 71.1983 34.8697 71.0992 34.8824 71.0013L35.2738 63.9505C35.2922 63.619 35.4368 63.3071 35.6779 63.0791C35.9191 62.8511 36.2384 62.7243 36.5702 62.7248H40.3875C40.7302 62.727 41.0583 62.8646 41.3002 63.1075C41.5422 63.3504 41.6785 63.6791 41.6796 64.0221V73.7096C41.6839 73.9608 41.6134 74.2075 41.4769 74.4183C41.3405 74.6291 41.1444 74.7945 40.9136 74.8932L37.4161 76.4769C37.2359 76.5582 37.0395 76.5972 36.8419 76.5908C36.6444 76.5845 36.4508 76.533 36.2762 76.4403C36.1015 76.3477 35.9504 76.2163 35.8343 76.0562C35.7182 75.896 35.6402 75.7115 35.6063 75.5166V75.5082ZM29.9329 60.6736C28.0372 59.9265 26.3174 58.7934 24.8823 57.3461C24.8138 57.2741 24.7532 57.1951 24.7014 57.1102C23.7073 55.3053 22.8627 53.4219 22.1761 51.4788C22.1336 51.3696 22.1081 51.2546 22.1003 51.1376C22.0538 50.5194 22.0538 49.8984 22.1003 49.2802C22.4707 43.8383 23.2578 41.0457 24.4909 39.2809C24.5932 39.1342 24.7246 39.0101 24.877 38.9167C25.0295 38.8232 25.1996 38.7623 25.3766 38.7378C25.5537 38.7132 25.734 38.7256 25.906 38.7742C26.0781 38.8227 26.2383 38.9063 26.3765 39.0198L27.3277 39.7948C27.3277 39.7948 26.1029 49.5624 32.7991 55.1264C34.7168 56.7994 36.9389 58.0865 39.3437 58.9172C39.5924 58.9969 39.8113 59.15 39.9716 59.3563C40.1319 59.5627 40.2262 59.8126 40.2421 60.0735C40.258 60.3344 40.1948 60.594 40.0608 60.8183C39.9268 61.0426 39.7282 61.2212 39.491 61.3306L39.3437 61.3938C37.3109 62.1857 33.3588 61.8529 30.0171 60.703L29.9455 60.6778L29.9329 60.6736ZM82.8752 47.9281C83.7297 49.953 84.891 51.8339 86.318 53.5048C89.9039 57.6578 96.1624 57.94 96.1624 57.94C96.1624 57.94 91.1118 60.6146 90.7499 60.6146C90.3879 60.6146 83.435 59.2794 83.0815 58.9298C82.7279 58.5802 82.9426 59.351 80.8298 54.4272C80.0067 52.4304 79.8589 50.219 80.4089 48.1303C80.4733 47.8652 80.6197 47.6272 80.8271 47.4501C81.0346 47.273 81.2925 47.1659 81.5643 47.1439C81.836 47.122 82.1078 47.1864 82.3409 47.328C82.574 47.4695 82.7565 47.681 82.8626 47.9323L82.8752 47.9281Z" fill="#CECDCC"/>
<path fill-rule="evenodd" clip-rule="evenodd" d="M16.0818 111.559C14.1836 111.559 14.1878 108.678 16.0818 108.678H52.0964C53.9903 108.678 53.9903 111.559 52.0964 111.559H16.0818ZM37.4877 65.0165V73.2846C37.4888 73.6283 37.6257 73.9577 37.8686 74.2007C38.1114 74.4438 38.4405 74.5808 38.784 74.5819H66.0443C73.2455 74.5819 77.2186 83.9283 78.7885 89.1722C80.1269 93.6369 79.5208 98.746 79.1126 101.598C79.0702 101.904 78.9194 102.184 78.6877 102.388C78.4559 102.592 78.1586 102.706 77.8499 102.71L63.7295 102.823C63.518 102.824 63.31 102.877 63.1237 102.977C62.9374 103.078 62.7783 103.222 62.6605 103.397C62.5426 103.573 62.4695 103.775 62.4474 103.985C62.4254 104.196 62.4552 104.409 62.5342 104.605C64.7985 110.219 70.1647 116.019 73.8053 116.07C73.8698 116.074 73.9344 116.074 73.9989 116.07C79.8365 115.278 83.3256 112.157 85.3626 108.269C87.9258 103.417 88.4603 97.2761 88.4603 92.685V65.0923C88.4599 64.7906 88.3535 64.4986 88.1595 64.2676C87.9656 64.0365 87.6966 63.8812 87.3997 63.8287C86.5113 63.6619 85.6373 63.4253 84.786 63.1211C84.5901 63.051 84.3802 63.029 84.174 63.0569C83.9678 63.0849 83.7712 63.1619 83.6009 63.2815C83.4306 63.4012 83.2915 63.56 83.1953 63.7447C83.099 63.9293 83.0484 64.1344 83.0478 64.3426V71.9873C83.0478 73.8869 80.169 73.8869 80.169 71.9873V61.1794C80.1714 60.9895 80.131 60.8016 80.0509 60.6295C79.9707 60.4574 79.8529 60.3056 79.706 60.1854C79.4254 59.9411 79.1448 59.6841 78.8643 59.4146C78.672 59.2218 78.4227 59.0964 78.1535 59.0569C77.8843 59.0174 77.6095 59.0661 77.3701 59.1956C76.1917 59.8021 74.9757 60.3325 73.7295 60.7835C73.4784 60.8722 73.2618 61.0382 73.1106 61.2575C72.9595 61.4769 72.8815 61.7385 72.8878 62.0049V69.4433C72.8878 71.3387 70.0048 71.3387 70.0048 69.4433V63.3359C70.0052 63.1536 69.9672 62.9732 69.8933 62.8065C69.8194 62.6398 69.7112 62.4906 69.5758 62.3685C69.4404 62.2465 69.2807 62.1545 69.1074 62.0983C68.934 62.0422 68.7507 62.0233 68.5696 62.0429L63.8473 62.5567C63.5214 62.5834 63.2178 62.7332 62.9981 62.9757C62.7785 63.2182 62.6593 63.5352 62.6646 63.8624V69.5023C62.6646 71.4019 59.7858 71.4019 59.7858 69.5023V63.6771C59.7867 63.3572 59.6695 63.0482 59.4566 62.8096C59.2438 62.5709 58.9503 62.4193 58.6326 62.384C55.8464 62.0723 51.6713 61.3352 52.6056 57.9657C53.54 54.5961 57.1469 56.3398 59.5459 56.6684C65.9727 57.5487 71.8945 56.0534 77.3028 52.5196C80.6235 50.3546 81.4022 54.9288 85.2111 56.9927C96.154 62.9147 106.983 48.5392 98.1237 39.6772C96.1163 37.679 93.4133 36.5372 90.5823 36.4916C87.7514 36.4461 85.013 37.5003 82.9426 39.4329C79.7986 42.3813 73.2161 36.2698 84.281 31.8893C85.3017 31.4825 86.3606 31.1791 87.4418 30.9837C87.7557 30.9283 88.0381 30.7588 88.2346 30.5076C88.4312 30.2565 88.528 29.9415 88.5066 29.6232C87.1303 8.01157 60.5644 -2.33305 44.9709 13.2766C41.4351 16.8166 39.0153 21.3173 38.0112 26.2206C37.0072 31.1239 37.4632 36.2144 39.3227 40.8608C40.7158 44.3441 35.4801 46.4796 34.0196 43.0847C33.9986 43.03 33.9817 42.9836 33.9649 42.9289L32.6013 38.182C32.5504 38.007 32.4635 37.8447 32.346 37.7056C32.2285 37.5664 32.0832 37.4534 31.9193 37.374C31.7555 37.2946 31.5768 37.2505 31.3948 37.2446C31.2129 37.2387 31.0317 37.271 30.863 37.3396C20.3621 41.6484 23.0473 58.3068 35.1728 58.3068C38.9902 58.3068 41.768 55.5943 43.1948 58.985C44.4574 62.005 41.0567 63.2264 38.5399 63.7234C38.246 63.78 37.9809 63.9369 37.7897 64.1674C37.5986 64.3978 37.4933 64.6875 37.4919 64.987L37.4877 65.0165ZM31.7511 30.1161C31.746 30.3952 31.6486 30.6648 31.4743 30.8827C31.2999 31.1006 31.0583 31.2546 30.7873 31.3207C14.5287 35.6169 14.5414 59.1998 30.762 63.5044C31.043 63.5728 31.2919 63.7355 31.4674 63.9655C31.6428 64.1955 31.734 64.4788 31.7258 64.768V73.2973C31.7247 73.641 31.5878 73.9703 31.3449 74.2134C31.1021 74.4564 30.773 74.5934 30.4295 74.5946H17.3823C5.96806 74.5946 0 89.1469 0 98.5102C0 112.709 9.32668 122.021 20.6231 122.021H70.9686C89.4409 122.021 94.2263 106.563 94.2263 92.6682V64.6501C94.2205 64.3651 94.3096 64.0863 94.4795 63.8575C94.6494 63.6288 94.8905 63.463 95.1649 63.3865C110.902 58.8249 110.952 36.0507 95.228 31.4176C94.9646 31.3456 94.7315 31.1902 94.5638 30.9745C94.3961 30.7588 94.3028 30.4946 94.2979 30.2213C94.0252 22.3065 90.7557 14.7915 85.1522 9.19936C65.7918 -10.1757 32.757 3.07935 31.7511 30.0992V30.1161ZM62.4752 97.0865C62.3002 97.0899 62.1264 97.0568 61.9648 96.9894C61.8032 96.922 61.6574 96.8217 61.5367 96.6948C61.4129 96.5703 61.3164 96.4214 61.2533 96.2575C61.1903 96.0936 61.1621 95.9183 61.1705 95.7429C61.3557 90.6254 63.0224 84.3326 66.0611 81.1358C66.2746 80.9098 66.5623 80.7684 66.8715 80.7374C67.1807 80.7065 67.4907 80.7881 67.7446 80.9673C68.3303 81.4028 68.8529 81.9174 69.2977 82.4962C72.2438 86.2028 73.78 91.1645 73.8516 95.6881C73.8538 95.8594 73.8222 96.0294 73.7587 96.1885C73.6951 96.3475 73.6008 96.4924 73.4811 96.6149C73.3615 96.7374 73.2188 96.835 73.0614 96.9022C72.904 96.9694 72.7349 97.0049 72.5637 97.0065L62.4626 97.0865H62.4752ZM57.4247 80.3481H18.6407C14.4025 80.3481 12.1339 81.9697 9.38139 85.7731C7.96303 87.7359 5.59348 91.9353 5.73658 99.0999C5.95123 109.516 12.3823 116.251 20.5894 116.251H60.434C60.6777 116.25 60.9163 116.181 61.1223 116.051C61.3284 115.921 61.4937 115.735 61.5991 115.515C61.7046 115.295 61.746 115.05 61.7186 114.808C61.6911 114.565 61.596 114.336 61.4441 114.145C54.0998 105.03 53.6915 91.9226 58.54 82.2393C58.6388 82.0413 58.6854 81.8214 58.6757 81.6004C58.6659 81.3794 58.5999 81.1645 58.4841 80.9761C58.3683 80.7876 58.2063 80.6318 58.0136 80.5234C57.8209 80.415 57.6037 80.3576 57.3826 80.3565L57.4247 80.3481ZM16.0818 88.5446C14.1878 88.5446 14.1878 85.6594 16.0818 85.6594H52.0964C53.9903 85.6594 53.9903 88.5446 52.0964 88.5446H16.0818ZM12.5632 96.2146C10.6693 96.2146 10.6693 93.3336 12.5632 93.3336H48.5778C50.4718 93.3336 50.4718 96.2146 48.5778 96.2146H12.5632ZM12.5632 103.889C10.6693 103.889 10.6693 101.004 12.5632 101.004H48.5778C50.4718 101.004 50.4718 103.889 48.5778 103.889H12.5632Z" fill="#E23E3E"/>
</g>
<defs>
<clipPath id="clip0_104_901">
<rect width="107" height="122" fill="white"/>
</clipPath>
</defs>
</svg>
