<svg width="137" height="137" viewBox="0 0 137 137" fill="none" xmlns="http://www.w3.org/2000/svg">
    <rect width="137" height="137" rx="40" fill="url(#0uxzv4iuya)"/>
    <path d="M89.938 61.438c2.725 0 5.39-.8 7.656-2.3a13.672 13.672 0 0 0 5.076-6.121 13.51 13.51 0 0 0 .784-7.881 13.598 13.598 0 0 0-3.772-6.985 13.825 13.825 0 0 0-7.056-3.733 13.913 13.913 0 0 0-7.962.777 13.752 13.752 0 0 0-6.185 5.024 13.541 13.541 0 0 0-2.323 7.578 13.591 13.591 0 0 0 4.043 9.64 13.875 13.875 0 0 0 9.739 4zm-4.166-19.931 3.675-1.212a1.54 1.54 0 0 1 1.379.212 1.495 1.495 0 0 1 .643 1.227V53.86c0 .402-.162.788-.449 1.072a1.54 1.54 0 0 1-2.165 0 1.508 1.508 0 0 1-.449-1.072V43.841l-1.654.546c-.385.128-.807.1-1.172-.08a1.524 1.524 0 0 1-.772-.875c-.13-.382-.102-.8.08-1.16.18-.361.499-.636.884-.765zm3.032 22.901-9.294 8.776 21.146 19.612V60.649a16.885 16.885 0 0 1-10.719 3.82c-.382 0-.75-.03-1.133-.06zM72.512 79.792a8.314 8.314 0 0 1-5.72 2.273 8.315 8.315 0 0 1-5.719-2.273l-4.547-4.396-23.184 21.507a4.53 4.53 0 0 0 1.521 2.81 4.618 4.618 0 0 0 3.012 1.131h58.188a4.618 4.618 0 0 0 3.011-1.13 4.53 4.53 0 0 0 1.521-2.81L77.289 75.274l-4.777 4.517zM33.373 53.026a3.759 3.759 0 0 0-.092.833v38.937l21.04-19.522-20.948-20.248z" fill="#fff"/>
    <path d="m70.383 77.61 14.685-13.854a16.9 16.9 0 0 1-8.17-5.428 16.626 16.626 0 0 1-3.728-9.016H37.875a4.536 4.536 0 0 0-2.894 1.046l28.22 27.251a5.207 5.207 0 0 0 3.592 1.433 5.207 5.207 0 0 0 3.59-1.433z" fill="#fff"/>
    <defs>
        <linearGradient id="0uxzv4iuya" x1="0" y1="-8.412" x2="158.154" y2="16.091" gradientUnits="userSpaceOnUse">
            <stop stop-color="#53E88B"/>
            <stop offset="1" stop-color="#15BE77"/>
        </linearGradient>
    </defs>
</svg>
