<svg width="158" height="114" viewBox="0 0 158 114" fill="none" xmlns="http://www.w3.org/2000/svg">
<circle cx="84" cy="54" r="50" fill="#FFBA4D" stroke="white" stroke-width="8"/>
<circle cx="5.5" cy="59.5" r="5.5" fill="#FFBA4D"/>
<circle cx="121.5" cy="108.5" r="5.5" fill="#FFBA4D"/>
<circle cx="148.5" cy="49.5" r="9.5" fill="#FFBA4D"/>
<circle cx="32.5" cy="97.5" r="8.5" fill="#FFBA4D"/>
<circle cx="2.5" cy="2.5" r="2.5" transform="matrix(-1 0 0 1 146 72)" fill="#FFBA4D"/>
<circle cx="2.5" cy="2.5" r="2.5" transform="matrix(-1 0 0 1 29 38)" fill="#FFBA4D"/>
<path d="M79.2419 73.5727L79.0266 73.2059C75.7381 67.603 66.9995 55.7128 66.9112 55.5934L66.7852 55.4221L69.7624 52.4798L79.1866 59.0605C85.1203 51.3606 90.6561 46.0719 94.2671 42.9836C98.2172 39.6052 100.788 38.0499 100.814 38.035L100.873 38H105.923L105.441 38.4296C93.034 49.4802 79.5865 72.9671 79.4526 73.2031L79.2419 73.5727Z" fill="#E23E3E"/>
</svg>
